<?xml version="1.0" encoding="utf-8"?>
<!-- Generator: Adobe Illustrator 22.0.1, SVG Export Plug-In . SVG Version: 6.00 Build 0)  -->
<svg version="1.1" id="Capa_1" xmlns="http://www.w3.org/2000/svg" xmlns:xlink="http://www.w3.org/1999/xlink" x="0px" y="0px"
	 viewBox="0 0 280.9 63" style="enable-background:new 0 0 280.9 63;" xml:space="preserve">
<style type="text/css">
	.st0{fill:url(#SVGID_1_);}
	.st1{fill:url(#SVGID_2_);}
	.st2{fill:url(#SVGID_3_);}
	.st3{fill:#696A6A;}
</style>
<g>
	<g>
		<g>
			<g>
				<linearGradient id="SVGID_1_" gradientUnits="userSpaceOnUse" x1="0.419" y1="31.3874" x2="180.6484" y2="31.3874">
					<stop  offset="0" style="stop-color:#2F4B98"/>
					<stop  offset="0.5391" style="stop-color:#71BCD3"/>
					<stop  offset="0.6168" style="stop-color:#76BDC2"/>
					<stop  offset="0.7709" style="stop-color:#81BE96"/>
					<stop  offset="0.9848" style="stop-color:#95C14F"/>
					<stop  offset="1" style="stop-color:#96C14A"/>
				</linearGradient>
				<path class="st0" d="M81.1,22.3c-12.1,0-20.1,8.3-20.1,19.8c0,11.6,8.3,19.9,20.7,19.9c9.4,0,16.6-4.9,18.4-12.7H87.5
					c-1.1,1.7-3.1,2.7-5.8,2.7c-4.8,0-7.5-2.7-8.5-6.1h27l-0.1-0.2c0.2-1.4,0.2-2.9,0.2-4.3C100.4,29.9,92.1,22.3,81.1,22.3
					 M73.1,38.4c0.9-3.8,3.7-6.3,8-6.3c4.1,0,6.8,2.2,7.5,6.3H73.1z M131,12.1c1.7,0,4,0.3,5.8,0.7l1.7-10.6c-3.8-1-7-1.4-10.1-1.4
					c-9.7,0-16.6,6.8-16.6,17.8v4.5h-9.3V34h9.3v27.1h12.6V34h13.3V23.1h-13.3v-4.8C124.5,14.5,127,12.1,131,12.1 M168.8,23.1v2
					c-2.8-1.8-6.2-2.9-10.4-2.9c-10.2,0-18.8,8.4-18.8,19.8c0,11.3,8.6,19.8,18.8,19.8c4.1,0,7.6-1.1,10.4-2.9v2.1h12.6V23.1H168.8z
					 M168.8,47.9c-2.3,2.7-5.1,3.5-7.9,3.5c-5.2,0-8.9-4.1-8.9-9.4c0-5.2,3.7-9.5,8.9-9.5c2.8,0,5.5,0.9,7.9,3.6V47.9z"/>
			</g>
		</g>
		<linearGradient id="SVGID_2_" gradientUnits="userSpaceOnUse" x1="0.419" y1="34.4769" x2="180.6484" y2="34.4769">
			<stop  offset="0" style="stop-color:#2F4B98"/>
			<stop  offset="0.5391" style="stop-color:#71BCD3"/>
			<stop  offset="0.6168" style="stop-color:#76BDC2"/>
			<stop  offset="0.7709" style="stop-color:#81BE96"/>
			<stop  offset="0.9848" style="stop-color:#95C14F"/>
			<stop  offset="1" style="stop-color:#96C14A"/>
		</linearGradient>
		<path class="st1" d="M1.1,34.5c0,15,11.3,26.8,26.5,27.6V49.8c-7.7-0.8-13.1-7.5-13.1-15.3c0-7.8,5.4-14.5,13.1-15.3V6.8
			C12.3,7.6,1.1,19.5,1.1,34.5"/>
		<linearGradient id="SVGID_3_" gradientUnits="userSpaceOnUse" x1="0.419" y1="34.4768" x2="180.6484" y2="34.4768">
			<stop  offset="0" style="stop-color:#2F4B98"/>
			<stop  offset="0.5391" style="stop-color:#71BCD3"/>
			<stop  offset="0.6168" style="stop-color:#76BDC2"/>
			<stop  offset="0.7709" style="stop-color:#81BE96"/>
			<stop  offset="0.9848" style="stop-color:#95C14F"/>
			<stop  offset="1" style="stop-color:#96C14A"/>
		</linearGradient>
		<path class="st2" d="M30.9,6.9v12.3c7.6,0.9,13,7.5,13,15.3c0,7.8-5.3,14.4-13,15.3v12.3c15.2-0.9,26.4-12.7,26.4-27.6
			C57.3,19.6,46.1,7.7,30.9,6.9"/>
	</g>
	<g>
		<path class="st3" d="M215.4,16.5c0,2.1-1.7,3.8-3.8,3.8c-2.1,0-3.8-1.7-3.8-3.8c0-2.1,1.7-3.8,3.8-3.8
			C213.7,12.6,215.4,14.3,215.4,16.5z M214.3,16.5c0-1.6-1.2-2.9-2.8-2.9c-1.6,0-2.8,1.3-2.8,2.9s1.2,2.9,2.8,2.9
			C213.1,19.3,214.3,18,214.3,16.5z"/>
		<path class="st3" d="M217.7,15.8c0.5-0.5,1.1-0.9,1.9-0.9v0.9c-0.8,0-1.4,0.4-1.9,1v3.2h-1v-5h1V15.8z"/>
		<path class="st3" d="M225.5,20.2c0,1.5-1,2.5-2.5,2.5c-1.4,0-2.4-0.8-2.5-2h1c0.1,0.6,0.7,1.1,1.5,1.1c0.9,0,1.6-0.6,1.6-1.6v-0.7
			c-0.5,0.4-1,0.6-1.7,0.6c-1.4,0-2.5-1.2-2.5-2.5c0-1.5,1.1-2.6,2.5-2.6c0.7,0,1.3,0.2,1.7,0.6v-0.4h1V20.2z M224.5,18.4v-1.8
			c-0.4-0.6-1-0.8-1.6-0.8c-1,0-1.7,0.8-1.7,1.8c0,0.9,0.7,1.7,1.7,1.7C223.5,19.2,224.1,18.9,224.5,18.4z"/>
		<path class="st3" d="M232,20.1h-1v-0.4c-0.4,0.4-1,0.6-1.7,0.6c-1.4,0-2.6-1.2-2.6-2.6c0-1.5,1.1-2.7,2.6-2.7
			c0.7,0,1.3,0.2,1.7,0.6v-0.4h1V20.1z M231,18.6v-2c-0.4-0.6-0.9-0.8-1.5-0.8c-1,0-1.7,0.8-1.7,1.8c0,1,0.7,1.8,1.7,1.8
			C230,19.4,230.6,19.2,231,18.6z"/>
		<path class="st3" d="M238.3,17.3v2.9h-1v-2.8c0-1-0.5-1.5-1.4-1.5c-0.5,0-1.1,0.3-1.5,0.8v3.5h-1v-5h1v0.5c0.5-0.4,1-0.7,1.7-0.7
			C237.5,14.9,238.3,15.8,238.3,17.3z"/>
		<path class="st3" d="M239.6,13.2c0-0.4,0.3-0.6,0.6-0.6c0.4,0,0.6,0.3,0.6,0.6c0,0.4-0.3,0.6-0.6,0.6
			C239.9,13.8,239.6,13.6,239.6,13.2z M240.8,20.1h-1v-5h1V20.1z"/>
		<path class="st3" d="M242.9,18.5c0.1,0.6,0.6,1,1.4,1c0.7,0,1.2-0.3,1.2-0.7c0-0.4-0.3-0.6-0.7-0.7l-1.1-0.2
			c-0.8-0.1-1.5-0.5-1.5-1.4c0-1,0.8-1.6,2.1-1.6c1,0,2.1,0.4,2.2,1.6l-0.9,0c-0.1-0.6-0.6-0.9-1.3-0.9c-0.7,0-1.1,0.3-1.1,0.7
			c0,0.3,0.2,0.6,0.9,0.7l1,0.2c0.7,0.1,1.5,0.5,1.5,1.4c0,1-0.9,1.6-2.2,1.6c-1.2,0-2.2-0.5-2.3-1.8L242.9,18.5z"/>
		<path class="st3" d="M256,17.3v2.9h-1v-2.8c0-1-0.5-1.5-1.3-1.5c-0.5,0-1,0.2-1.4,0.8c0,0.2,0.1,0.4,0.1,0.6v2.9h-1v-2.8
			c0-1-0.5-1.5-1.3-1.5c-0.5,0-0.9,0.3-1.3,0.8v3.5h-1v-5h1v0.5c0.4-0.4,0.8-0.6,1.5-0.6c0.7,0,1.3,0.3,1.7,0.8
			c0.5-0.6,1.1-0.8,2-0.8C255.1,14.9,256,15.8,256,17.3z"/>
		<path class="st3" d="M262.5,17.6c0,1.5-1.2,2.7-2.7,2.7c-1.5,0-2.7-1.2-2.7-2.7s1.2-2.7,2.7-2.7C261.4,15,262.5,16.1,262.5,17.6z
			 M261.5,17.6c0-1-0.7-1.8-1.7-1.8c-1,0-1.7,0.8-1.7,1.8c0,1,0.7,1.8,1.7,1.8C260.8,19.4,261.5,18.6,261.5,17.6z"/>
		<path class="st3" d="M212.9,33.6h-1v-0.5c-0.4,0.4-1,0.6-1.7,0.6c-1.4,0-2.6-1.2-2.6-2.6c0-1.5,1.1-2.6,2.6-2.6
			c0.7,0,1.3,0.2,1.7,0.6V26h1V33.6z M211.9,32.1v-2c-0.4-0.6-0.9-0.8-1.5-0.8c-1,0-1.7,0.8-1.7,1.8c0,1,0.7,1.8,1.7,1.8
			C211,32.9,211.5,32.7,211.9,32.1z"/>
		<path class="st3" d="M219.2,31.5L219.2,31.5L219.2,31.5h-4.1c0.1,0.8,0.7,1.4,1.7,1.4c0.6,0,1-0.2,1.2-0.6h1.1
			c-0.3,0.9-1.2,1.5-2.3,1.5c-1.6,0-2.6-1.2-2.6-2.6c0-1.5,1.1-2.7,2.6-2.7c1.4,0,2.5,1.1,2.5,2.6C219.2,31.2,219.2,31.4,219.2,31.5
			z M215.1,30.8h3.1c-0.1-0.9-0.6-1.4-1.5-1.4C215.8,29.3,215.2,29.9,215.1,30.8z"/>
		<path class="st3" d="M224.4,29.5h3.8v1h-3.8v2.2h4.2v1h-5.2v-7.3h5.2v1h-4.2V29.5z"/>
		<path class="st3" d="M232.3,33.6h-0.9l-2.4-5h1l1.8,3.8l1.7-3.8h1.1L232.3,33.6z"/>
		<path class="st3" d="M240.3,33.6h-1v-0.4c-0.4,0.4-1,0.6-1.7,0.6c-1.4,0-2.6-1.2-2.6-2.6c0-1.5,1.1-2.7,2.6-2.7
			c0.7,0,1.3,0.2,1.7,0.6v-0.4h1V33.6z M239.3,32.1v-2c-0.4-0.6-0.9-0.8-1.5-0.8c-1,0-1.7,0.8-1.7,1.8c0,1,0.7,1.8,1.7,1.8
			C238.4,32.9,238.9,32.7,239.3,32.1z"/>
		<path class="st3" d="M242.8,33.6h-1V26h1V33.6z"/>
		<path class="st3" d="M249.1,33.6h-1v-0.5c-0.5,0.4-1,0.7-1.7,0.7c-1.3,0-2.2-0.9-2.2-2.4v-2.8h1v2.8c0,1,0.5,1.5,1.4,1.5
			c0.5,0,1.1-0.3,1.5-0.8v-3.5h1V33.6z"/>
		<path class="st3" d="M255.5,33.6h-1v-0.4c-0.4,0.4-1,0.6-1.7,0.6c-1.4,0-2.6-1.2-2.6-2.6c0-1.5,1.1-2.7,2.6-2.7
			c0.7,0,1.3,0.2,1.7,0.6v-0.4h1V33.6z M254.5,32.1v-2c-0.4-0.6-0.9-0.8-1.5-0.8c-1,0-1.7,0.8-1.7,1.8c0,1,0.7,1.8,1.7,1.8
			C253.6,32.9,254.1,32.7,254.5,32.1z"/>
		<path class="st3" d="M260.8,31.9h1c-0.2,1.1-1.2,1.9-2.4,1.9c-1.5,0-2.7-1.2-2.7-2.6c0-1.5,1.1-2.7,2.7-2.7c1.2,0,2.2,0.8,2.4,1.9
			h-1c-0.1-0.6-0.7-1-1.4-1c-1,0-1.7,0.8-1.7,1.8c0,1,0.6,1.7,1.7,1.7C260.1,32.9,260.7,32.5,260.8,31.9z"/>
		<path class="st3" d="M262.9,26.7c0-0.4,0.3-0.6,0.6-0.6c0.4,0,0.6,0.3,0.6,0.6c0,0.4-0.3,0.6-0.6,0.6
			C263.2,27.3,262.9,27.1,262.9,26.7z M264.1,33.6h-1v-5h1V33.6z"/>
		<path class="st3" d="M270.7,31.1c0,1.5-1.2,2.7-2.7,2.7c-1.5,0-2.7-1.2-2.7-2.7s1.2-2.7,2.7-2.7C269.5,28.5,270.7,29.6,270.7,31.1
			z M269.7,31.1c0-1-0.7-1.8-1.7-1.8c-1,0-1.7,0.8-1.7,1.8c0,1,0.7,1.8,1.7,1.8C269,32.9,269.7,32.1,269.7,31.1z M268.4,27.7h-0.9
			l0.8-1.6h1.1L268.4,27.7z"/>
		<path class="st3" d="M276.8,30.8v2.9h-1v-2.8c0-1-0.5-1.5-1.4-1.5c-0.5,0-1.1,0.3-1.5,0.8v3.5h-1v-5h1v0.5c0.5-0.4,1-0.7,1.7-0.7
			C275.9,28.4,276.8,29.4,276.8,30.8z"/>
		<path class="st3" d="M209.8,49.8h-1l1.1-2.4l-2.5-5.3h1.1l2,4.1l1.8-4.1h1L209.8,49.8z"/>
		<path class="st3" d="M218.2,43.2h3.6v1h-3.6v3h-1v-7.3h5.1v1h-4.1V43.2z"/>
		<path class="st3" d="M223.3,40.2c0-0.4,0.3-0.6,0.6-0.6c0.4,0,0.6,0.3,0.6,0.6s-0.3,0.6-0.6,0.6C223.6,40.9,223.3,40.6,223.3,40.2
			z M224.5,47.1h-1v-5h1V47.1z"/>
		<path class="st3" d="M226.6,45.5c0.1,0.6,0.6,1,1.4,1c0.7,0,1.2-0.3,1.2-0.7c0-0.4-0.3-0.6-0.7-0.7l-1.1-0.2
			c-0.8-0.1-1.5-0.5-1.5-1.4c0-1,0.8-1.6,2.1-1.6c1,0,2.1,0.4,2.2,1.6l-0.9,0c-0.1-0.6-0.6-0.9-1.3-0.9c-0.7,0-1.1,0.3-1.1,0.7
			c0,0.3,0.2,0.6,0.9,0.7l1,0.2c0.7,0.1,1.5,0.5,1.5,1.4c0,1-0.9,1.6-2.2,1.6c-1.2,0-2.2-0.5-2.3-1.8L226.6,45.5z"/>
		<path class="st3" d="M235.2,45.4h1c-0.2,1.1-1.2,1.9-2.4,1.9c-1.5,0-2.7-1.2-2.7-2.6c0-1.5,1.1-2.7,2.7-2.7c1.2,0,2.2,0.8,2.4,1.9
			h-1c-0.1-0.6-0.7-1-1.4-1c-1,0-1.7,0.8-1.7,1.8c0,1,0.6,1.7,1.7,1.7C234.5,46.4,235.1,46,235.2,45.4z"/>
		<path class="st3" d="M242.4,47.1h-1v-0.4c-0.4,0.4-1,0.6-1.7,0.6c-1.4,0-2.6-1.2-2.6-2.6c0-1.5,1.1-2.7,2.6-2.7
			c0.7,0,1.3,0.2,1.7,0.6v-0.4h1V47.1z M241.4,45.6v-2c-0.4-0.6-0.9-0.8-1.5-0.8c-1,0-1.7,0.8-1.7,1.8c0,1,0.7,1.8,1.7,1.8
			C240.5,46.4,241,46.2,241.4,45.6z"/>
		<path class="st3" d="M244.9,47.1h-1v-7.7h1V47.1z"/>
		<path class="st3" d="M246.2,40.2c0-0.4,0.3-0.6,0.6-0.6c0.4,0,0.6,0.3,0.6,0.6s-0.3,0.6-0.6,0.6C246.5,40.9,246.2,40.6,246.2,40.2
			z M247.4,47.1h-1v-5h1V47.1z"/>
		<path class="st3" d="M249.9,46.3h3v0.8h-4.4v-0.5l3-3.7h-2.9v-0.8h4.3v0.6L249.9,46.3z"/>
		<path class="st3" d="M258.8,47.1h-1v-0.4c-0.4,0.4-1,0.6-1.7,0.6c-1.4,0-2.6-1.2-2.6-2.6c0-1.5,1.1-2.7,2.6-2.7
			c0.7,0,1.3,0.2,1.7,0.6v-0.4h1V47.1z M257.8,45.6v-2c-0.4-0.6-0.9-0.8-1.5-0.8c-1,0-1.7,0.8-1.7,1.8c0,1,0.7,1.8,1.7,1.8
			C256.8,46.4,257.4,46.2,257.8,45.6z"/>
		<path class="st3" d="M264,45.4h1c-0.2,1.1-1.2,1.9-2.4,1.9c-1.5,0-2.7-1.2-2.7-2.6c0-1.5,1.1-2.7,2.7-2.7c1.2,0,2.2,0.8,2.4,1.9
			h-1c-0.1-0.6-0.7-1-1.4-1c-1,0-1.7,0.8-1.7,1.8c0,1,0.6,1.7,1.7,1.7C263.4,46.4,263.9,46,264,45.4z"/>
		<path class="st3" d="M266.2,40.2c0-0.4,0.3-0.6,0.6-0.6c0.4,0,0.6,0.3,0.6,0.6s-0.3,0.6-0.6,0.6C266.4,40.9,266.2,40.6,266.2,40.2
			z M267.3,47.1h-1v-5h1V47.1z"/>
		<path class="st3" d="M273.9,44.6c0,1.5-1.2,2.7-2.7,2.7c-1.5,0-2.7-1.2-2.7-2.7c0-1.5,1.2-2.7,2.7-2.7
			C272.7,42,273.9,43.1,273.9,44.6z M272.9,44.6c0-1-0.7-1.8-1.7-1.8c-1,0-1.7,0.8-1.7,1.8c0,1,0.7,1.8,1.7,1.8
			C272.2,46.4,272.9,45.6,272.9,44.6z M271.6,41.2h-0.9l0.8-1.6h1.1L271.6,41.2z"/>
		<path class="st3" d="M280,44.3v2.9h-1v-2.8c0-1-0.5-1.5-1.4-1.5c-0.5,0-1.1,0.3-1.5,0.8v3.5h-1v-5h1v0.5c0.5-0.4,1-0.7,1.7-0.7
			C279.1,41.9,280,42.9,280,44.3z"/>
		<path class="st3" d="M209.3,58.8l-0.8,1.9h-1.1l3.3-7.4h1l3.3,7.4h-1.1l-0.8-1.9H209.3z M211.1,54.5l-1.4,3.3h2.9L211.1,54.5z"/>
		<path class="st3" d="M224.1,57.8v2.9h-1v-2.8c0-1-0.5-1.5-1.3-1.5c-0.5,0-1,0.2-1.4,0.8c0,0.2,0.1,0.4,0.1,0.6v2.9h-1v-2.8
			c0-1-0.5-1.5-1.3-1.5c-0.5,0-0.9,0.3-1.3,0.8v3.5h-1v-5h1v0.5c0.4-0.4,0.8-0.6,1.5-0.6c0.7,0,1.3,0.3,1.7,0.8
			c0.5-0.6,1.1-0.8,2-0.8C223.2,55.4,224.1,56.4,224.1,57.8z"/>
		<path class="st3" d="M230.8,58.1c0,1.5-1.2,2.6-2.6,2.6c-0.7,0-1.3-0.2-1.7-0.6v0.5h-1V53h1v3.1c0.4-0.4,1-0.6,1.7-0.6
			C229.6,55.5,230.8,56.7,230.8,58.1z M229.8,58.1c0-1-0.7-1.8-1.7-1.8c-0.6,0-1.2,0.2-1.5,0.8v1.9c0.4,0.6,0.9,0.8,1.5,0.8
			C229.1,59.9,229.8,59.1,229.8,58.1z"/>
		<path class="st3" d="M231.9,53.7c0-0.4,0.3-0.6,0.6-0.6c0.4,0,0.6,0.3,0.6,0.6s-0.3,0.6-0.6,0.6C232.1,54.4,231.9,54.1,231.9,53.7
			z M233,60.7h-1v-5h1V60.7z"/>
		<path class="st3" d="M239.3,58.5L239.3,58.5L239.3,58.5h-4.1c0.1,0.8,0.7,1.4,1.7,1.4c0.6,0,1-0.2,1.2-0.6h1.1
			c-0.3,0.9-1.2,1.5-2.3,1.5c-1.6,0-2.6-1.2-2.6-2.6c0-1.5,1.1-2.7,2.6-2.7c1.4,0,2.5,1.1,2.5,2.6C239.4,58.2,239.4,58.4,239.3,58.5
			z M235.2,57.8h3.1c-0.1-0.9-0.6-1.4-1.5-1.4C235.9,56.3,235.4,57,235.2,57.8z"/>
		<path class="st3" d="M245.5,57.8v2.9h-1v-2.8c0-1-0.5-1.5-1.4-1.5c-0.5,0-1.1,0.3-1.5,0.8v3.5h-1v-5h1v0.5c0.5-0.4,1-0.7,1.7-0.7
			C244.6,55.4,245.5,56.4,245.5,57.8z"/>
		<path class="st3" d="M250.3,60.6c-0.5,0.2-0.8,0.2-1.2,0.2c-1.2,0-1.9-0.7-1.9-2v-2.3h-1.2v-0.8h1.2v-1.9h1v1.9h1.9v0.8h-1.9v2.3
			c0,0.8,0.4,1.1,1,1.1c0.3,0,0.6-0.1,0.8-0.1L250.3,60.6z"/>
		<path class="st3" d="M256.2,60.7h-1v-0.4c-0.4,0.4-1,0.6-1.7,0.6c-1.4,0-2.6-1.2-2.6-2.6c0-1.5,1.1-2.7,2.6-2.7
			c0.7,0,1.3,0.2,1.7,0.6v-0.4h1V60.7z M255.2,59.1v-2c-0.4-0.6-0.9-0.8-1.5-0.8c-1,0-1.7,0.8-1.7,1.8c0,1,0.7,1.8,1.7,1.8
			C254.2,59.9,254.8,59.7,255.2,59.1z"/>
		<path class="st3" d="M258.6,60.7h-1V53h1V60.7z"/>
	</g>
</g>
</svg>
