<?xml version="1.0" encoding="utf-8"?>
<!-- Generator: Adobe Illustrator 22.0.1, SVG Export Plug-In . SVG Version: 6.00 Build 0)  -->
<svg version="1.1" id="Capa_1" xmlns="http://www.w3.org/2000/svg" xmlns:xlink="http://www.w3.org/1999/xlink" x="0px" y="0px"
	 viewBox="0 0 3204.9 469" style="enable-background:new 0 0 3204.9 469;" xml:space="preserve">
<style type="text/css">
	.st0{fill:#1E80B6;}
	.st1{enable-background:new    ;}
	.st2{fill:#666666;}
</style>
<g>
	<rect x="317.4" y="151.8" class="st0" width="102.2" height="306.6"/>
	<path class="st0" d="M1036.3,162c-22.7-14.8-50-23.8-84-23.8c-82.9,0-152.2,68.1-152.2,160.1s69.3,160.1,152.2,160.1
		c32.9,0,61.3-9.1,84-23.8v18.2h102.2V148.4h-102.2V162z M1036.3,345.9c-19.3,21.6-40.9,28.4-63.6,28.4c-42,0-71.5-32.9-71.5-76.1
		c0-42,30.7-76.1,71.5-76.1c22.7,0,44.3,6.8,63.6,29.5V345.9z"/>
	<path class="st0" d="M640,139.3c-48.8,0-68.1,12.5-82.9,25v-12.5H454.9v306.6h102.2V261.9c0,0,20.4-26.1,56.8-23.8
		c15.9,1.1,29.5,7.9,38.6,18.2c9.1,10.2,17,26.1,17,40.9v161.3h102.2V280.1c0-39.7-10.2-71.5-29.5-95.4
		C721.7,162,691.1,139.3,640,139.3z"/>
	<path class="st0" d="M1403.1,146.1V162c-22.7-14.8-50-23.8-84-23.8c-82.9,0-152.2,68.1-152.2,160.1c0,90.8,69.3,160.1,152.2,160.1
		c32.9,0,61.3-9.1,84-23.8v18.2l0,0h102.2v-2.3V146.1V10.9h-102.2C1403.1,10.9,1403.1,146.1,1403.1,146.1z M1403.1,345.9
		c-19.3,21.6-40.9,28.4-63.6,28.4c-42,0-71.5-32.9-71.5-76.1c0-42,30.7-76.1,71.5-76.1c22.7,0,44.3,6.8,63.6,29.5V345.9z"/>
	<path class="st0" d="M1768.7,148.4v14.8c-22.7-14.8-50-23.8-84-23.8c-82.9,0-152.2,68.1-152.2,160.1c0,90.8,69.3,160.1,152.2,160.1
		c32.9,0,61.3-9.1,84-23.8v18.2h102.2V148.4H1768.7z M1768.7,345.9c-19.3,21.6-40.9,28.4-63.6,28.4c-42,0-71.5-32.9-71.5-76.1
		c0-42,30.7-76.1,71.5-76.1c22.7,0,44.3,6.8,63.6,29.5V345.9z"/>
	<path class="st0" d="M232.3,289.2c-14.8-6.8-31.8-13.6-53.4-20.4c-6.8-2.3-12.5-3.4-17-5.7v81.8c2.3,1.1,21.6,7.9,21.6,25
		c0,9.1-5.7,20.4-21.6,23.8v63.6c26.1,0,47.7-4.5,65.9-11.4c18.2-7.9,32.9-19.3,42-32.9c10.2-13.6,14.8-28.4,14.8-45.4
		c0-20.4-5.7-36.3-15.9-48.8C258.4,305.1,245.9,296,232.3,289.2z"/>
	<path class="st0" d="M29,181.3c-11.4,13.6-17,30.7-17,50c0,20.4,5.7,36.3,15.9,48.8s22.7,22.7,37.5,28.4
		c14.8,6.8,32.9,12.5,54.5,19.3c6.8,2.3,12.5,3.4,18.2,5.7v-82.9c-2.3-1.1-5.7-2.3-6.8-3.4c-9.1-4.5-13.6-11.4-13.6-20.4
		c0-5.7,5.7-15.9,21.6-19.3v-69.3c-23.8,0-44.3,3.4-63.6,10.2C56.3,157.4,40.4,167.7,29,181.3z"/>
	<path class="st0" d="M175.5,234.7h102.2c-2.3-30.7-15.9-53.4-39.7-70.4c-20.4-14.8-47.7-22.7-80.6-25v68.1
		C175.5,211.9,175.5,225.6,175.5,234.7z"/>
	<path class="st0" d="M115.3,363H13.1c2.3,30.7,15.9,53.4,39.7,70.4c20.4,14.8,53.4,20.4,86.3,21.6v-64.7
		C121,386.8,115.3,373.2,115.3,363z"/>
</g>
<g class="st1">
	<path class="st2" d="M2045.4,170.4c0,2.5,0.7,4.6,2.1,6.2c1.4,1.6,3.2,2.9,5.3,3.7s4.6,1.5,7.3,2.1c2.7,0.6,5.3,1.3,8,2
		c2.7,0.8,5.1,1.7,7.3,2.9c2.2,1.2,4,3,5.3,5.3s2.1,5.3,2.1,8.8c0,5.3-2,10-6.1,14c-4.1,4-9.6,5.9-16.6,5.9c-7,0-12.6-1.6-17-4.8
		c-4.4-3.2-6.5-7.5-6.5-13h9.6c0.3,3.1,1.5,5.6,3.7,7.5c2.2,1.9,5.5,2.9,9.8,2.9s7.8-1.1,10.4-3.4c2.6-2.2,3.9-4.9,3.9-7.9
		c0-3-0.7-5.3-2.1-6.9c-1.4-1.6-3.2-2.8-5.3-3.6s-4.6-1.5-7.3-2c-2.7-0.6-5.3-1.2-8-2c-2.7-0.8-5.1-1.8-7.3-3c-2.2-1.2-4-3-5.3-5.4
		c-1.4-2.4-2.1-5.4-2.1-9c0-5.8,2.1-10.5,6.2-14c4.1-3.5,9.5-5.3,16.1-5.3c6.6,0,11.9,1.5,15.8,4.6c3.9,3.1,6.2,7.3,6.8,12.7h-10
		c-0.3-2.7-1.5-5-3.8-6.9c-2.3-1.9-5.3-2.9-9.2-2.9s-7,1-9.4,2.9C2046.6,163.8,2045.4,166.6,2045.4,170.4z"/>
	<path class="st2" d="M2118.9,221.6c-7.8,0-14.1-2.6-19-7.7c-4.9-5.1-7.3-11.9-7.3-20.4c0-8.4,2.5-15.2,7.4-20.3
		c4.9-5.1,11.4-7.7,19.2-7.7c7.9,0,14.2,2.4,19,7.3c4.8,4.8,7.2,11,7.2,18.6c0,1.9-0.1,3.7-0.4,5.3h-43.2c0.3,5.4,2,9.7,5.1,12.8
		c3.1,3.1,7.1,4.7,12,4.7c3.7,0,6.8-0.8,9.4-2.5c2.5-1.6,4.4-3.8,5.6-6.5h9.7c-1.7,4.7-4.7,8.7-8.9,11.8
		C2130.5,220,2125.3,221.6,2118.9,221.6z M2131.1,177.6c-3.2-3.1-7.2-4.7-12-4.7c-4.8,0-8.8,1.5-11.9,4.6s-4.9,7.3-5.2,12.6h34.1
		C2136,184.9,2134.3,180.7,2131.1,177.6z"/>
	<path class="st2" d="M2165.6,166.4v9.2c3.2-6.7,8.7-10.1,16.5-10.1v9.4h-2.4c-4.6,0-8.1,1.2-10.5,3.6c-2.4,2.4-3.6,6.6-3.6,12.5
		v29.7h-9v-54.3H2165.6z"/>
	<path class="st2" d="M2186.8,166.4h9.6l16.6,45.9l16.7-45.9h9.7l-21.3,54.3H2208L2186.8,166.4z"/>
	<path class="st2" d="M2257,155.9c-1.2,1.2-2.6,1.8-4.4,1.8c-1.7,0-3.2-0.6-4.3-1.8c-1.2-1.2-1.7-2.6-1.7-4.4c0-1.7,0.6-3.2,1.8-4.4
		s2.6-1.8,4.3-1.8c1.7,0,3.1,0.6,4.3,1.8c1.2,1.2,1.8,2.6,1.8,4.4C2258.8,153.2,2258.2,154.7,2257,155.9z M2248.1,220.7v-54.3h9
		v54.3H2248.1z"/>
	<path class="st2" d="M2275.7,213.8c-4.9-5.1-7.3-11.9-7.3-20.3s2.4-15.2,7.3-20.3c4.9-5.1,11.2-7.7,19-7.7c6.5,0,11.9,1.5,16,4.6
		c4.1,3,7,7.4,8.7,13h-9.7c-1.1-3.2-2.9-5.6-5.4-7.4c-2.6-1.8-5.7-2.7-9.5-2.7c-5.1,0-9.3,1.8-12.4,5.4c-3.1,3.6-4.7,8.7-4.7,15.2
		c0,6.6,1.6,11.6,4.7,15.2c3.1,3.6,7.3,5.4,12.4,5.4c7.7,0,12.7-3.4,14.9-10.1h9.7c-1.6,5.3-4.6,9.6-8.8,12.8
		c-4.2,3.2-9.5,4.7-15.9,4.7C2286.9,221.6,2280.6,219,2275.7,213.8z"/>
	<path class="st2" d="M2340.2,155.9c-1.2,1.2-2.6,1.8-4.4,1.8c-1.7,0-3.2-0.6-4.3-1.8c-1.2-1.2-1.7-2.6-1.7-4.4
		c0-1.7,0.6-3.2,1.8-4.4s2.6-1.8,4.3-1.8c1.7,0,3.1,0.6,4.3,1.8c1.2,1.2,1.8,2.6,1.8,4.4C2342,153.2,2341.4,154.7,2340.2,155.9z
		 M2331.3,220.7v-54.3h9v54.3H2331.3z"/>
	<path class="st2" d="M2359,213.8c-5-5.1-7.5-11.9-7.5-20.3c0-8.4,2.6-15.2,7.8-20.3c5.2-5.2,11.7-7.8,19.6-7.8
		c7.8,0,14.4,2.6,19.6,7.8c5.2,5.2,7.8,11.9,7.8,20.3c0,8.3-2.7,15.1-8.2,20.3c-5.4,5.2-12.1,7.8-19.9,7.8
		C2370.4,221.6,2364,219,2359,213.8z M2378.3,214.1c5.1,0,9.5-1.8,13.2-5.5c3.7-3.7,5.6-8.7,5.6-15.2c0-6.5-1.8-11.5-5.3-15.1
		c-3.6-3.6-7.9-5.4-13-5.4c-5.1,0-9.4,1.8-12.8,5.4c-3.4,3.6-5.1,8.7-5.1,15.2c0,6.5,1.6,11.6,4.9,15.2
		C2369,212.3,2373.2,214.1,2378.3,214.1z"/>
	<path class="st2" d="M2451.2,213.6c-4.9-5.3-7.4-12.1-7.4-20.4c0-8.3,2.5-15,7.4-20.1c4.9-5.1,11.1-7.7,18.6-7.7
		c4.6,0,8.7,1.1,12.1,3.3s6.1,5,7.9,8.5v-29.8h9.1v73.2h-9.1v-11.1c-1.8,3.6-4.4,6.4-7.9,8.7c-3.5,2.2-7.5,3.3-12.1,3.3
		C2462.3,221.6,2456.1,218.9,2451.2,213.6z M2484.3,208.3c3.6-3.7,5.4-8.6,5.4-14.7c0-6.1-1.8-11-5.4-14.7c-3.6-3.7-7.9-5.5-13-5.5
		c-5,0-9.4,1.8-13,5.3c-3.6,3.6-5.4,8.4-5.4,14.5c0,6.1,1.8,11.1,5.4,14.9c3.6,3.8,7.9,5.7,13,5.7
		C2476.4,213.8,2480.7,212,2484.3,208.3z"/>
	<path class="st2" d="M2536.4,221.6c-7.8,0-14.1-2.6-19-7.7c-4.9-5.1-7.3-11.9-7.3-20.4c0-8.4,2.5-15.2,7.4-20.3
		c4.9-5.1,11.4-7.7,19.2-7.7c7.9,0,14.2,2.4,19,7.3c4.8,4.8,7.2,11,7.2,18.6c0,1.9-0.1,3.7-0.4,5.3h-43.2c0.3,5.4,2,9.7,5.1,12.8
		c3.1,3.1,7.1,4.7,12,4.7c3.7,0,6.8-0.8,9.4-2.5c2.5-1.6,4.4-3.8,5.6-6.5h9.7c-1.7,4.7-4.7,8.7-8.9,11.8
		C2548,220,2542.7,221.6,2536.4,221.6z M2548.6,177.6c-3.2-3.1-7.2-4.7-12-4.7c-4.8,0-8.8,1.5-11.9,4.6s-4.9,7.3-5.2,12.6h34.1
		C2553.4,184.9,2551.8,180.7,2548.6,177.6z"/>
	<path class="st2" d="M2603.8,220.7v-68.6h9v68.6H2603.8z"/>
	<path class="st2" d="M2636.6,166.4v8.8c3.7-6.5,9.6-9.7,17.7-9.7c6,0,11,2,15,6c4,4,6,9.7,6,17.1v32.2h-8.9V190
		c0-5.5-1.3-9.6-4-12.5c-2.6-2.8-6.3-4.3-10.9-4.3c-4.7,0-8.3,1.4-11,4.3c-2.7,2.8-4,7-4,12.5v30.7h-9v-54.3H2636.6z"/>
	<path class="st2" d="M2712.1,166.4v7.3h-11.4v47h-9.1v-47h-7v-7.3h7v-4.6c0-5.9,1.6-10.3,4.7-13c3.2-2.7,8.1-4.1,14.9-4.1v7.3
		c-4,0-6.7,0.7-8.3,2.2c-1.6,1.5-2.3,4-2.3,7.5v4.6H2712.1z"/>
	<path class="st2" d="M2726.3,213.8c-5-5.1-7.5-11.9-7.5-20.3c0-8.4,2.6-15.2,7.8-20.3c5.2-5.2,11.7-7.8,19.6-7.8
		c7.8,0,14.4,2.6,19.6,7.8c5.2,5.2,7.8,11.9,7.8,20.3c0,8.3-2.7,15.1-8.2,20.3c-5.4,5.2-12.1,7.8-19.9,7.8
		C2737.7,221.6,2731.3,219,2726.3,213.8z M2745.5,214.1c5.1,0,9.5-1.8,13.2-5.5c3.7-3.7,5.6-8.7,5.6-15.2c0-6.5-1.8-11.5-5.3-15.1
		c-3.6-3.6-7.9-5.4-13-5.4c-5.1,0-9.4,1.8-12.8,5.4c-3.4,3.6-5.1,8.7-5.1,15.2c0,6.5,1.6,11.6,4.9,15.2
		C2736.3,212.3,2740.5,214.1,2745.5,214.1z"/>
	<path class="st2" d="M2793.9,166.4v9.2c3.2-6.7,8.7-10.1,16.5-10.1v9.4h-2.4c-4.6,0-8.1,1.2-10.5,3.6c-2.4,2.4-3.6,6.6-3.6,12.5
		v29.7h-9v-54.3H2793.9z"/>
	<path class="st2" d="M2830.3,166.4v8.8c3.7-6.5,9.6-9.7,17.7-9.7c4.2,0,7.9,1,11.3,3c3.4,2,5.9,4.9,7.6,8.8c2-3.7,4.7-6.6,8.1-8.7
		c3.4-2.1,7.3-3.1,11.6-3.1c6.1,0,11.2,2,15.2,6c4,4,6,9.7,6,17.1v32.2h-8.9V190c0-5.5-1.3-9.6-4-12.5c-2.7-2.8-6.3-4.3-10.9-4.3
		c-4.6,0-8.3,1.4-10.9,4.3c-2.7,2.8-4,7-4,12.5v30.7h-8.9V190c0-5.5-1.3-9.6-4-12.5c-2.6-2.8-6.3-4.3-10.9-4.3
		c-4.7,0-8.3,1.4-11,4.3c-2.7,2.8-4,7-4,12.5v30.7h-9v-54.3H2830.3z"/>
	<path class="st2" d="M2926.1,213.6c-4.9-5.3-7.4-12.1-7.4-20.4c0-8.3,2.5-15,7.4-20.1c4.9-5.1,11.1-7.7,18.6-7.7
		c4.6,0,8.7,1.1,12.1,3.3s6.1,5,7.9,8.5v-10.9h9.1v54.3h-9.1v-11.1c-1.8,3.6-4.4,6.4-7.9,8.7c-3.5,2.2-7.5,3.3-12.1,3.3
		C2937.2,221.6,2931.1,218.9,2926.1,213.6z M2959.2,208.3c3.6-3.7,5.4-8.6,5.4-14.7c0-6.1-1.8-11-5.4-14.7c-3.6-3.7-7.9-5.5-13-5.5
		c-5,0-9.4,1.8-13,5.3c-3.6,3.6-5.4,8.4-5.4,14.5c0,6.1,1.8,11.1,5.4,14.9c3.6,3.8,7.9,5.7,13,5.7
		C2951.3,213.8,2955.6,212,2959.2,208.3z"/>
	<path class="st2" d="M2992.3,213.8c-4.9-5.1-7.3-11.9-7.3-20.3s2.4-15.2,7.3-20.3c4.9-5.1,11.2-7.7,19-7.7c6.5,0,11.9,1.5,16,4.6
		c4.1,3,7,7.4,8.7,13h-9.7c-1.1-3.2-2.9-5.6-5.4-7.4c-2.6-1.8-5.7-2.7-9.5-2.7c-5.1,0-9.3,1.8-12.4,5.4c-3.1,3.6-4.7,8.7-4.7,15.2
		c0,6.6,1.6,11.6,4.7,15.2c3.1,3.6,7.3,5.4,12.4,5.4c7.7,0,12.7-3.4,14.9-10.1h9.7c-1.6,5.3-4.6,9.6-8.8,12.8
		c-4.2,3.2-9.5,4.7-15.9,4.7C3003.5,221.6,2997.2,219,2992.3,213.8z"/>
	<path class="st2" d="M3056.8,155.9c-1.2,1.2-2.6,1.8-4.4,1.8c-1.7,0-3.2-0.6-4.3-1.8c-1.2-1.2-1.7-2.6-1.7-4.4
		c0-1.7,0.6-3.2,1.8-4.4s2.6-1.8,4.3-1.8c1.7,0,3.1,0.6,4.3,1.8c1.2,1.2,1.8,2.6,1.8,4.4C3058.6,153.2,3058,154.7,3056.8,155.9z
		 M3047.9,220.7v-54.3h9v54.3H3047.9z"/>
	<path class="st2" d="M3075.7,213.8c-5-5.1-7.5-11.9-7.5-20.3c0-8.4,2.6-15.2,7.8-20.3c5.2-5.2,11.7-7.8,19.6-7.8
		c7.8,0,14.4,2.6,19.6,7.8c5.2,5.2,7.8,11.9,7.8,20.3c0,8.3-2.7,15.1-8.2,20.3c-5.4,5.2-12.1,7.8-19.9,7.8
		C3087.1,221.6,3080.6,219,3075.7,213.8z M3094.9,214.1c5.1,0,9.5-1.8,13.2-5.5c3.7-3.7,5.6-8.7,5.6-15.2c0-6.5-1.8-11.5-5.3-15.1
		c-3.6-3.6-7.9-5.4-13-5.4c-5.1,0-9.4,1.8-12.8,5.4c-3.4,3.6-5.1,8.7-5.1,15.2c0,6.5,1.6,11.6,4.9,15.2
		C3085.6,212.3,3089.8,214.1,3094.9,214.1z M3084.1,155.7l21.1-12.5v8.3l-21.1,11.1V155.7z"/>
	<path class="st2" d="M3143.3,166.4v8.8c3.7-6.5,9.6-9.7,17.7-9.7c6,0,11,2,15,6c4,4,6,9.7,6,17.1v32.2h-8.9V190
		c0-5.5-1.3-9.6-4-12.5c-2.6-2.8-6.3-4.3-10.9-4.3c-4.7,0-8.3,1.4-11,4.3c-2.7,2.8-4,7-4,12.5v30.7h-9v-54.3H3143.3z"/>
</g>
<g class="st1">
	<path class="st2" d="M2083.3,271.3h9v68.6h-9l-36.2-54.4v54.4h-9v-68.6h9l36.2,54.4V271.3z"/>
	<path class="st2" d="M2111,332.8c-4.9-5.3-7.4-12.1-7.4-20.4c0-8.3,2.5-15,7.4-20.1c4.9-5.1,11.1-7.7,18.6-7.7
		c4.6,0,8.7,1.1,12.1,3.3s6.1,5,7.9,8.5v-10.9h9.1v54.3h-9.1v-11.1c-1.8,3.6-4.4,6.4-7.9,8.7c-3.5,2.2-7.5,3.3-12.1,3.3
		C2122.1,340.8,2116,338.1,2111,332.8z M2144.1,327.5c3.6-3.7,5.4-8.6,5.4-14.7s-1.8-11-5.4-14.7c-3.6-3.7-7.9-5.5-13-5.5
		c-5,0-9.4,1.8-13,5.3c-3.6,3.6-5.4,8.4-5.4,14.5c0,6.1,1.8,11.1,5.4,14.9c3.6,3.8,7.9,5.7,13,5.7
		C2136.2,333.1,2140.5,331.2,2144.1,327.5z"/>
	<path class="st2" d="M2177.2,333.1c-4.9-5.1-7.3-11.9-7.3-20.3s2.4-15.2,7.3-20.3c4.9-5.1,11.2-7.7,19-7.7c6.5,0,11.9,1.5,16,4.6
		c4.1,3,7,7.4,8.7,13h-9.7c-1.1-3.2-2.9-5.6-5.4-7.4c-2.6-1.8-5.7-2.7-9.5-2.7c-5.1,0-9.3,1.8-12.4,5.4c-3.1,3.6-4.7,8.7-4.7,15.2
		c0,6.6,1.6,11.6,4.7,15.2c3.1,3.6,7.3,5.4,12.4,5.4c7.7,0,12.7-3.4,14.9-10.1h9.7c-1.6,5.3-4.6,9.6-8.8,12.8
		c-4.2,3.2-9.5,4.7-15.9,4.7C2188.4,340.8,2182.1,338.2,2177.2,333.1z"/>
	<path class="st2" d="M2241.7,275.1c-1.2,1.2-2.6,1.8-4.4,1.8c-1.7,0-3.2-0.6-4.3-1.8c-1.2-1.2-1.7-2.6-1.7-4.4
		c0-1.7,0.6-3.2,1.8-4.4c1.2-1.2,2.6-1.8,4.3-1.8c1.7,0,3.1,0.6,4.3,1.8c1.2,1.2,1.8,2.6,1.8,4.4
		C2243.5,272.5,2242.9,273.9,2241.7,275.1z M2232.8,339.9v-54.3h9v54.3H2232.8z"/>
	<path class="st2" d="M2260.6,333.1c-5-5.1-7.5-11.9-7.5-20.3c0-8.4,2.6-15.2,7.8-20.3c5.2-5.2,11.7-7.8,19.6-7.8
		c7.8,0,14.4,2.6,19.6,7.8c5.2,5.2,7.8,11.9,7.8,20.3c0,8.3-2.7,15.1-8.2,20.3c-5.4,5.2-12.1,7.8-19.9,7.8
		C2272,340.8,2265.6,338.2,2260.6,333.1z M2279.8,333.4c5.1,0,9.5-1.8,13.2-5.5c3.7-3.7,5.6-8.7,5.6-15.2c0-6.5-1.8-11.5-5.3-15.1
		c-3.6-3.6-7.9-5.4-13-5.4c-5.1,0-9.4,1.8-12.8,5.4c-3.4,3.6-5.1,8.7-5.1,15.2c0,6.5,1.6,11.6,4.9,15.2
		C2270.6,331.6,2274.7,333.4,2279.8,333.4z"/>
	<path class="st2" d="M2328.2,285.6v8.8c3.7-6.5,9.6-9.7,17.7-9.7c6,0,11,2,15,6c4,4,6,9.7,6,17.1v32.2h-8.9v-30.7
		c0-5.5-1.3-9.6-4-12.5c-2.6-2.8-6.3-4.3-10.9-4.3c-4.7,0-8.3,1.4-11,4.3c-2.7,2.8-4,7-4,12.5v30.7h-9v-54.3H2328.2z"/>
	<path class="st2" d="M2385.2,332.8c-4.9-5.3-7.4-12.1-7.4-20.4c0-8.3,2.5-15,7.4-20.1c4.9-5.1,11.1-7.7,18.6-7.7
		c4.6,0,8.7,1.1,12.1,3.3s6.1,5,7.9,8.5v-10.9h9.1v54.3h-9.1v-11.1c-1.8,3.6-4.4,6.4-7.9,8.7c-3.5,2.2-7.5,3.3-12.1,3.3
		C2396.3,340.8,2390.1,338.1,2385.2,332.8z M2418.3,327.5c3.6-3.7,5.4-8.6,5.4-14.7s-1.8-11-5.4-14.7c-3.6-3.7-7.9-5.5-13-5.5
		c-5,0-9.4,1.8-13,5.3c-3.6,3.6-5.4,8.4-5.4,14.5c0,6.1,1.8,11.1,5.4,14.9c3.6,3.8,7.9,5.7,13,5.7
		C2410.4,333.1,2414.7,331.2,2418.3,327.5z"/>
	<path class="st2" d="M2447.6,339.9v-73.2h9v73.2H2447.6z"/>
	<path class="st2" d="M2516.4,339l-21.5-53.4h9.9l16.6,43.9l16.9-43.9h9.3l-32.8,79.7h-9.3L2516.4,339z"/>
	<path class="st2" d="M2607.6,271.3c11.1,0,19.8,3.1,26.2,9.3c6.4,6.2,9.6,14.6,9.6,25.3c0,10.7-3.2,19-9.6,25c-6.4,6-15.1,9-26.2,9
		H2586v-68.6H2607.6z M2595,333h12.7c8.6,0,15.2-2.4,19.8-7.1c4.6-4.7,6.8-11.4,6.8-19.9c0-8.5-2.3-15.1-6.8-19.9
		c-4.6-4.7-11.1-7.1-19.8-7.1H2595V333z"/>
	<path class="st2" d="M2677.6,340.8c-7.8,0-14.1-2.6-19-7.7c-4.9-5.1-7.3-11.9-7.3-20.4c0-8.4,2.5-15.2,7.4-20.3
		c4.9-5.1,11.4-7.7,19.2-7.7c7.9,0,14.2,2.4,19,7.3c4.8,4.8,7.2,11,7.2,18.6c0,1.9-0.1,3.7-0.4,5.3h-43.2c0.3,5.4,2,9.7,5.1,12.8
		c3.1,3.1,7.1,4.7,12,4.7c3.7,0,6.8-0.8,9.4-2.5c2.5-1.6,4.4-3.8,5.6-6.5h9.7c-1.7,4.7-4.7,8.7-8.9,11.8
		C2689.2,339.2,2683.9,340.8,2677.6,340.8z M2689.7,296.8c-3.2-3.1-7.2-4.7-12-4.7c-4.8,0-8.8,1.5-11.9,4.6
		c-3.2,3.1-4.9,7.3-5.2,12.6h34.1C2694.6,304.1,2693,300,2689.7,296.8z"/>
	<path class="st2" d="M2724.3,285.6v8.8c3.7-6.5,9.6-9.7,17.7-9.7c6,0,11,2,15,6c4,4,6,9.7,6,17.1v32.2h-8.9v-30.7
		c0-5.5-1.3-9.6-4-12.5c-2.6-2.8-6.3-4.3-10.9-4.3c-4.7,0-8.3,1.4-11,4.3c-2.7,2.8-4,7-4,12.5v30.7h-9v-54.3H2724.3z"/>
	<path class="st2" d="M2815.7,285.6h9v54.3h-9v-8.7c-3.6,6.4-9.5,9.6-17.7,9.6c-6,0-11-2-15-6c-4-4-6-9.6-6-17v-32.3h8.9v30.8
		c0,5.4,1.3,9.5,4,12.4c2.7,2.9,6.3,4.3,10.9,4.3c4.6,0,8.3-1.4,10.9-4.3c2.7-2.9,4-7,4-12.4V285.6z"/>
	<path class="st2" d="M2848.5,285.6v8.8c3.7-6.5,9.6-9.7,17.7-9.7c6,0,11,2,15,6c4,4,6,9.7,6,17.1v32.2h-8.9v-30.7
		c0-5.5-1.3-9.6-4-12.5c-2.6-2.8-6.3-4.3-10.9-4.3c-4.7,0-8.3,1.4-11,4.3c-2.7,2.8-4,7-4,12.5v30.7h-9v-54.3H2848.5z"/>
	<path class="st2" d="M2905.4,333.1c-4.9-5.1-7.3-11.9-7.3-20.3s2.4-15.2,7.3-20.3c4.9-5.1,11.2-7.7,19-7.7c6.5,0,11.9,1.5,16,4.6
		c4.1,3,7,7.4,8.7,13h-9.7c-1.1-3.2-2.9-5.6-5.4-7.4c-2.6-1.8-5.7-2.7-9.5-2.7c-5.1,0-9.3,1.8-12.4,5.4c-3.1,3.6-4.7,8.7-4.7,15.2
		c0,6.6,1.6,11.6,4.7,15.2c3.1,3.6,7.3,5.4,12.4,5.4c7.7,0,12.7-3.4,14.9-10.1h9.7c-1.6,5.3-4.6,9.6-8.8,12.8
		c-4.2,3.2-9.5,4.7-15.9,4.7C2916.6,340.8,2910.3,338.2,2905.4,333.1z"/>
	<path class="st2" d="M2969.9,275.1c-1.2,1.2-2.6,1.8-4.4,1.8c-1.7,0-3.2-0.6-4.3-1.8c-1.2-1.2-1.7-2.6-1.7-4.4
		c0-1.7,0.6-3.2,1.8-4.4c1.2-1.2,2.6-1.8,4.3-1.8c1.7,0,3.1,0.6,4.3,1.8c1.2,1.2,1.8,2.6,1.8,4.4
		C2971.7,272.5,2971.1,273.9,2969.9,275.1z M2961,339.9v-54.3h9v54.3H2961z"/>
	<path class="st2" d="M2988.7,332.8c-4.9-5.3-7.4-12.1-7.4-20.4c0-8.3,2.5-15,7.4-20.1c4.9-5.1,11.1-7.7,18.6-7.7
		c4.6,0,8.7,1.1,12.1,3.3s6.1,5,7.9,8.5v-10.9h9.1v54.3h-9.1v-11.1c-1.8,3.6-4.4,6.4-7.9,8.7c-3.5,2.2-7.5,3.3-12.1,3.3
		C2999.9,340.8,2993.7,338.1,2988.7,332.8z M3021.8,327.5c3.6-3.7,5.4-8.6,5.4-14.7s-1.8-11-5.4-14.7c-3.6-3.7-7.9-5.5-13-5.5
		c-5,0-9.4,1.8-13,5.3c-3.6,3.6-5.4,8.4-5.4,14.5c0,6.1,1.8,11.1,5.4,14.9c3.6,3.8,7.9,5.7,13,5.7
		C3013.9,333.1,3018.2,331.2,3021.8,327.5z"/>
	<path class="st2" d="M3049.2,300.9c0-4.6,1.9-8.4,5.7-11.5c3.8-3.1,8.7-4.7,14.7-4.7c6,0,10.8,1.5,14.2,4.6
		c3.4,3.1,5.3,7.3,5.6,12.6h-9.3c-0.1-3-1.2-5.5-3.1-7.3c-1.9-1.8-4.6-2.8-8-2.8c-3.4,0-6.1,0.8-8,2.4c-1.9,1.6-2.9,3.7-2.9,6.2
		c0,2.5,1.1,4.5,3.3,5.9c2.2,1.4,4.9,2.4,8,3c3.1,0.6,6.3,1.4,9.4,2.2c3.1,0.8,5.8,2.4,8,4.7c2.2,2.3,3.3,5.5,3.3,9.7
		c0,4.2-1.9,7.7-5.7,10.6c-3.8,2.9-8.7,4.3-14.8,4.3c-6.1,0-10.9-1.5-14.6-4.6c-3.7-3-5.7-7.2-6-12.6h9.3c0.1,3,1.2,5.5,3.2,7.3
		c2,1.8,4.8,2.7,8.3,2.7c3.5,0,6.3-0.8,8.3-2.3c2-1.5,3-3.4,3-5.8c0-2.3-0.8-4.2-2.4-5.6s-3.6-2.3-5.9-2.9c-2.4-0.5-5-1.2-7.8-1.9
		c-2.8-0.7-5.4-1.5-7.8-2.3c-2.4-0.8-4.4-2.3-5.9-4.3C3050,306.6,3049.2,304,3049.2,300.9z"/>
</g>
<g class="st1">
	<path class="st2" d="M2085.4,458l-5.3-15h-30.5l-5.3,15h-9.2l24.9-68.6h9.9l24.8,68.6H2085.4z M2052.2,435.8h25.3l-12.7-35.4
		L2052.2,435.8z"/>
	<path class="st2" d="M2115.5,403.7v8.8c3.7-6.5,9.6-9.7,17.7-9.7c4.2,0,7.9,1,11.3,3c3.4,2,5.9,4.9,7.6,8.8c2-3.7,4.7-6.6,8.1-8.7
		c3.4-2.1,7.3-3.1,11.6-3.1c6.1,0,11.2,2,15.2,6c4,4,6,9.7,6,17.1V458h-8.9v-30.7c0-5.5-1.3-9.6-4-12.5c-2.7-2.8-6.3-4.3-10.9-4.3
		c-4.6,0-8.3,1.4-10.9,4.3c-2.7,2.8-4,7-4,12.5V458h-8.9v-30.7c0-5.5-1.3-9.6-4-12.5c-2.6-2.8-6.3-4.3-10.9-4.3
		c-4.7,0-8.3,1.4-11,4.3c-2.7,2.8-4,7-4,12.5V458h-9v-54.3H2115.5z"/>
	<path class="st2" d="M2236.5,402.8c7.5,0,13.6,2.6,18.6,7.7c4.9,5.1,7.4,11.8,7.4,20.1c0,8.3-2.5,15.1-7.4,20.4
		c-4.9,5.3-11.1,8-18.5,8c-4.6,0-8.7-1.1-12.1-3.3c-3.5-2.2-6.1-5.1-8-8.7V458h-9v-73.2h9v29.8c1.8-3.5,4.5-6.3,8-8.5
		S2231.9,402.8,2236.5,402.8z M2234.8,451.2c5,0,9.4-1.9,13-5.7c3.6-3.8,5.4-8.8,5.4-14.9c0-6.2-1.8-11-5.4-14.6
		c-3.6-3.6-7.9-5.3-13-5.3c-5,0-9.4,1.8-13,5.5c-3.6,3.7-5.4,8.6-5.4,14.7c0,6.1,1.8,11,5.4,14.7
		C2225.4,449.3,2229.7,451.2,2234.8,451.2z"/>
	<path class="st2" d="M2282.6,393.2c-1.2,1.2-2.6,1.8-4.4,1.8c-1.7,0-3.2-0.6-4.3-1.8c-1.2-1.2-1.7-2.6-1.7-4.4
		c0-1.7,0.6-3.2,1.8-4.4c1.2-1.2,2.6-1.8,4.3-1.8c1.7,0,3.1,0.6,4.3,1.8c1.2,1.2,1.8,2.6,1.8,4.4
		C2284.4,390.6,2283.8,392,2282.6,393.2z M2273.7,458v-54.3h9V458H2273.7z"/>
	<path class="st2" d="M2320.3,458.9c-7.8,0-14.1-2.6-19-7.7c-4.9-5.1-7.3-11.9-7.3-20.4c0-8.4,2.5-15.2,7.4-20.3
		c4.9-5.1,11.4-7.7,19.2-7.7c7.9,0,14.2,2.4,19,7.3c4.8,4.8,7.2,11,7.2,18.6c0,1.9-0.1,3.7-0.4,5.3h-43.2c0.3,5.4,2,9.7,5.1,12.8
		c3.1,3.1,7.1,4.7,12,4.7c3.7,0,6.8-0.8,9.4-2.5c2.5-1.6,4.4-3.8,5.6-6.5h9.7c-1.7,4.7-4.7,8.7-8.9,11.8
		C2331.9,457.3,2326.6,458.9,2320.3,458.9z M2332.5,414.9c-3.2-3.1-7.2-4.7-12-4.7c-4.8,0-8.8,1.5-11.9,4.6
		c-3.2,3.1-4.9,7.3-5.2,12.6h34.1C2337.3,422.2,2335.7,418.1,2332.5,414.9z"/>
	<path class="st2" d="M2367,403.7v8.8c3.7-6.5,9.6-9.7,17.7-9.7c6,0,11,2,15,6c4,4,6,9.7,6,17.1V458h-8.9v-30.7
		c0-5.5-1.3-9.6-4-12.5c-2.6-2.8-6.3-4.3-10.9-4.3c-4.7,0-8.3,1.4-11,4.3c-2.7,2.8-4,7-4,12.5V458h-9v-54.3H2367z"/>
	<path class="st2" d="M2437.9,450.7h7.4v7.3h-9.1c-9.4,0-14.1-4.7-14.1-14v-33h-7v-7.3h7v-13.5h9.1v13.5h14v7.3h-14v33
		c0,2.4,0.5,4.2,1.5,5.1C2433.7,450.2,2435.4,450.7,2437.9,450.7z"/>
	<path class="st2" d="M2459.1,450.9c-4.9-5.3-7.4-12.1-7.4-20.4c0-8.3,2.5-15,7.4-20.1c4.9-5.1,11.1-7.7,18.6-7.7
		c4.6,0,8.7,1.1,12.1,3.3s6.1,5,7.9,8.5v-10.9h9.1V458h-9.1v-11.1c-1.8,3.6-4.4,6.4-7.9,8.7c-3.5,2.2-7.5,3.3-12.1,3.3
		C2470.2,458.9,2464.1,456.2,2459.1,450.9z M2492.2,445.6c3.6-3.7,5.4-8.6,5.4-14.7s-1.8-11-5.4-14.7c-3.6-3.7-7.9-5.5-13-5.5
		c-5,0-9.4,1.8-13,5.3c-3.6,3.6-5.4,8.4-5.4,14.5c0,6.1,1.8,11.1,5.4,14.9c3.6,3.8,7.9,5.7,13,5.7
		C2484.3,451.2,2488.6,449.3,2492.2,445.6z"/>
	<path class="st2" d="M2521.5,458v-73.2h9V458H2521.5z"/>
	<path class="st2" d="M2568.1,458.9c-7.8,0-14.1-2.6-19-7.7c-4.9-5.1-7.3-11.9-7.3-20.4c0-8.4,2.5-15.2,7.4-20.3
		c4.9-5.1,11.4-7.7,19.2-7.7c7.9,0,14.2,2.4,19,7.3c4.8,4.8,7.2,11,7.2,18.6c0,1.9-0.1,3.7-0.4,5.3H2551c0.3,5.4,2,9.7,5.1,12.8
		c3.1,3.1,7.1,4.7,12,4.7c3.7,0,6.8-0.8,9.4-2.5c2.5-1.6,4.4-3.8,5.6-6.5h9.7c-1.7,4.7-4.7,8.7-8.9,11.8
		C2579.7,457.3,2574.5,458.9,2568.1,458.9z M2580.3,414.9c-3.2-3.1-7.2-4.7-12-4.7c-4.8,0-8.8,1.5-11.9,4.6
		c-3.2,3.1-4.9,7.3-5.2,12.6h34.1C2585.2,422.2,2583.5,418.1,2580.3,414.9z"/>
	<path class="st2" d="M2603.9,419c0-4.6,1.9-8.4,5.7-11.5c3.8-3.1,8.7-4.7,14.7-4.7c6,0,10.8,1.5,14.2,4.6c3.4,3.1,5.3,7.3,5.6,12.6
		h-9.3c-0.1-3-1.2-5.5-3.1-7.3c-1.9-1.8-4.6-2.8-8-2.8c-3.4,0-6.1,0.8-8,2.4c-1.9,1.6-2.9,3.7-2.9,6.2c0,2.5,1.1,4.5,3.3,5.9
		c2.2,1.4,4.9,2.4,8,3c3.1,0.6,6.3,1.4,9.4,2.2c3.1,0.8,5.8,2.4,8,4.7c2.2,2.3,3.3,5.5,3.3,9.7c0,4.2-1.9,7.7-5.7,10.6
		c-3.8,2.9-8.7,4.3-14.8,4.3c-6.1,0-10.9-1.5-14.6-4.6c-3.7-3-5.7-7.2-6-12.6h9.3c0.1,3,1.2,5.5,3.2,7.3c2,1.8,4.8,2.7,8.3,2.7
		c3.5,0,6.3-0.8,8.3-2.3c2-1.5,3-3.4,3-5.8c0-2.3-0.8-4.2-2.4-5.6s-3.6-2.3-5.9-2.9c-2.4-0.5-5-1.2-7.8-1.9
		c-2.8-0.7-5.4-1.5-7.8-2.3c-2.4-0.8-4.4-2.3-5.9-4.3C2604.7,424.7,2603.9,422.1,2603.9,419z"/>
</g>
</svg>
